<?xml version="1.0" standalone="no"?>
<!DOCTYPE svg PUBLIC "-//W3C//DTD SVG 20010904//EN"
 "http://www.w3.org/TR/2001/REC-SVG-20010904/DTD/svg10.dtd">
<svg version="1.0" xmlns="http://www.w3.org/2000/svg"
 width="609.000000pt" height="1280.000000pt" viewBox="0 0 609.000000 1280.000000"
 preserveAspectRatio="xMidYMid meet">
<metadata>
Created by potrace 1.16, written by Peter Selinger 2001-2019
</metadata>
<g transform="translate(0.000000,1280.000000) scale(0.100000,-0.100000)"
fill="#000000" stroke="none">
<path d="M0 6400 l0 -6400 3045 0 3045 0 0 6400 0 6400 -3045 0 -3045 0 0
-6400z m2136 1465 c12 -8 27 -28 34 -45 l12 -30 834 0 c735 0 834 -2 834 -15
0 -8 5 -15 11 -15 5 0 7 -4 4 -10 -3 -5 -2 -10 3 -10 6 0 12 7 16 15 3 9 18
15 36 15 23 0 30 4 30 20 0 11 -6 21 -12 21 -7 1 1 5 17 9 l30 8 -27 1 c-31 1
-46 18 -24 27 9 3 13 10 10 15 -7 12 3 11 27 -1 30 -17 52 -66 39 -90 -9 -17
-9 -237 0 -358 3 -39 -27 -62 -80 -62 -25 0 -55 6 -66 14 -13 10 -15 14 -4 13
8 -1 40 2 70 7 43 6 51 10 35 16 -11 5 -16 9 -12 9 4 1 3 10 -3 21 -14 26 -86
28 -107 3 -8 -10 -12 -12 -8 -5 5 9 -164 12 -830 12 -538 0 -834 -3 -830 -10
8 -13 -21 -66 -40 -74 -26 -10 -84 -7 -106 5 -27 14 -42 55 -29 80 12 22 15
302 4 321 -6 10 -3 9 9 -1 9 -7 14 -17 11 -22 -3 -5 -1 -9 4 -9 6 0 12 7 16
15 3 9 18 15 36 15 25 0 30 4 30 24 0 15 7 26 18 29 11 3 7 5 -10 6 -31 1 -46
18 -24 27 9 3 13 10 10 15 -8 14 9 11 32 -6z m892 -580 c35 -8 68 -13 73 -9
14 8 126 -47 211 -104 87 -59 118 -99 155 -207 23 -68 27 -95 27 -180 -1 -55
-7 -128 -13 -163 l-12 -63 31 -29 32 -30 -4 -93 c-3 -84 -6 -97 -35 -142 -17
-28 -34 -68 -38 -90 l-6 -40 24 30 c14 17 103 131 198 255 290 379 472 610
483 617 8 5 8 3 0 -8 -6 -8 -78 -108 -159 -224 -249 -352 -538 -750 -547 -753
-14 -6 -9 -32 7 -38 11 -5 12 -11 5 -24 -7 -13 -6 -36 1 -72 16 -74 6 -187
-24 -250 -27 -61 -75 -121 -88 -112 -5 3 -22 -4 -37 -15 -15 -10 -55 -28 -87
-39 -221 -74 -482 1 -559 161 -24 48 -25 50 -20 17 4 -32 4 -33 -6 -10 -19 43
-24 155 -10 236 12 70 12 78 -3 89 -23 16 -21 24 3 18 12 -3 20 0 20 6 0 7 -4
10 -9 6 -8 -4 -157 195 -443 595 -178 249 -299 422 -296 425 3 2 300 -379 588
-755 82 -107 154 -208 159 -225 9 -25 9 -22 5 20 -9 86 -26 149 -50 180 -31
41 -47 113 -42 187 4 52 9 64 33 83 l28 23 -17 88 c-9 49 -20 102 -22 117 l-6
29 -25 -24 c-14 -13 -35 -43 -48 -67 l-22 -44 -12 77 c-20 138 -10 210 35 245
25 20 26 27 12 76 -2 6 22 12 52 15 l55 6 -65 20 -65 20 58 22 c32 12 72 22
90 22 22 0 40 9 57 27 18 19 20 25 8 20 -45 -16 12 47 67 76 39 21 169 22 253
2z m997 -15 c-22 -3 -220 -7 -440 -9 -312 -1 -404 1 -418 11 -14 11 67 12 440
9 252 -2 440 -7 418 -11z m-1355 -72 c0 -11 -12 -18 -42 -23 -69 -12 -149 -51
-142 -69 3 -9 16 -16 28 -17 21 0 21 0 -2 -9 -22 -9 -22 -10 -6 -41 15 -29 15
-33 0 -41 -33 -18 -56 -84 -56 -155 1 -84 21 -195 37 -200 6 -2 26 23 44 57
17 33 34 59 35 57 2 -2 12 -45 23 -96 17 -86 18 -92 1 -104 -29 -21 -40 -54
-40 -124 0 -84 13 -132 46 -175 24 -31 23 -30 -5 2 -17 19 -122 154 -233 300
-110 146 -263 347 -340 448 -76 100 -141 188 -144 195 -3 9 87 12 396 12 366
0 400 -1 400 -17z m1524 11 c5 -5 -19 -37 -328 -442 -83 -109 -190 -250 -238
-314 l-88 -115 0 82 c0 82 -15 132 -43 143 -11 4 -11 19 0 93 16 102 11 240
-10 281 -8 15 -18 44 -22 63 -10 52 -68 131 -125 169 -27 19 -50 37 -50 40 0
7 897 7 904 0z m-2204 -640 c32 -82 37 -104 19 -79 -10 13 -10 13 -6 0 26 -87
50 -149 57 -145 5 3 19 -29 31 -71 21 -73 25 -78 73 -109 119 -76 169 -89 243
-66 65 19 153 -29 153 -84 0 -39 -16 -62 -51 -74 -54 -19 -106 2 -164 65 -47
52 -54 56 -117 67 -37 6 -70 9 -73 6 -11 -12 -27 -126 -22 -161 3 -21 21 -59
41 -87 20 -27 39 -62 42 -79 9 -43 -12 -98 -47 -123 -18 -13 -29 -29 -29 -45
0 -13 -5 -24 -11 -24 -7 0 -8 11 -4 29 5 24 2 32 -15 41 -29 16 -60 69 -60
105 0 17 11 48 24 70 21 35 24 49 20 110 -3 38 -12 107 -21 152 l-16 82 -182
136 c-100 74 -190 144 -200 155 -34 37 -6 33 56 -9 34 -22 66 -41 71 -41 5 0
7 -4 4 -9 -3 -5 1 -12 10 -15 10 -4 13 -2 9 7 -4 6 1 3 10 -8 9 -11 21 -19 26
-17 6 1 41 -18 80 -43 38 -25 73 -45 77 -45 5 0 -14 84 -40 188 -26 103 -48
195 -48 206 0 37 29 -4 60 -85z m2170 96 c0 -3 -22 -95 -50 -205 -27 -110 -50
-202 -50 -206 0 -3 6 -2 13 3 37 30 178 112 172 101 -3 -7 0 -5 8 4 8 10 16
16 18 13 3 -2 18 7 34 22 31 26 101 73 110 73 3 0 5 -4 5 -9 0 -17 -61 -68
-226 -189 l-161 -117 -22 -91 c-13 -53 -19 -102 -16 -117 4 -15 2 -41 -4 -58
-9 -27 -7 -37 14 -73 17 -29 25 -58 25 -89 0 -40 -5 -51 -36 -82 -27 -27 -35
-43 -31 -61 3 -16 0 -24 -9 -24 -8 0 -14 11 -14 26 0 16 -13 37 -35 58 -30 29
-35 40 -35 80 0 39 7 57 40 103 48 68 55 99 37 183 l-13 65 -58 -3 c-72 -3
-103 -19 -150 -76 -46 -57 -97 -74 -150 -52 -61 25 -70 80 -21 126 32 30 81
39 135 25 62 -16 118 -1 211 57 l74 46 19 72 c10 41 21 67 26 61 6 -10 18 21
47 119 4 13 4 13 -6 0 -14 -19 -14 -11 0 28 6 18 14 30 18 27 4 -2 8 8 8 23 0
34 48 142 62 142 6 0 11 -2 11 -5z m-1403 -1152 c16 -6 16 -8 -5 -13 -42 -10
-1072 0 -1072 10 0 12 1047 14 1077 3z m1663 -3 c0 -7 -183 -10 -527 -11 -291
0 -540 -2 -555 -3 -29 -2 -38 8 -15 17 25 11 1097 7 1097 -3z m-2530 -168 c27
-13 36 -24 38 -49 3 -25 -2 -35 -23 -49 l-25 -16 32 -17 c21 -10 37 -29 47
-54 13 -35 13 -40 -6 -65 -29 -40 -60 -52 -133 -52 l-65 0 0 160 0 160 50 0
c28 0 66 -8 85 -18z m270 5 c0 -7 27 -79 59 -160 51 -127 57 -147 41 -147 -12
0 -23 14 -34 40 -9 22 -20 40 -26 40 -5 0 -7 6 -5 13 3 6 -12 54 -33 105 l-39
92 -37 -86 c-21 -48 -40 -93 -43 -100 -4 -10 13 -14 69 -17 l73 -3 -76 -2
c-75 -2 -77 -3 -89 -31 -6 -17 -9 -35 -5 -40 3 -7 -3 -11 -16 -11 -16 0 -19 3
-11 13 6 6 34 66 62 132 29 66 59 132 66 148 15 28 44 37 44 14z m314 -1 c81
-34 91 -132 16 -171 l-29 -15 41 -55 c22 -30 46 -55 52 -55 6 0 3 -5 -7 -11
-23 -13 -45 5 -84 67 -15 24 -37 47 -48 53 -18 8 -16 10 13 10 47 1 72 31 72
86 0 59 -32 95 -85 95 l-36 0 3 -155 c3 -149 2 -155 -17 -155 -19 0 -20 7 -20
160 l0 160 48 0 c26 0 63 -6 81 -14z m177 -123 c1 -76 1 -146 0 -155 -2 -15 6
-18 42 -18 56 0 86 23 94 72 5 32 1 41 -25 68 -21 20 -41 30 -64 31 l-33 1 35
8 c34 8 60 32 60 56 0 22 -34 53 -70 63 l-35 11 43 -4 c59 -6 92 -29 92 -66 0
-21 -8 -35 -26 -46 l-25 -17 30 -13 c30 -12 61 -58 61 -90 0 -9 -15 -31 -34
-50 -32 -32 -37 -34 -107 -34 l-74 0 0 160 c0 146 2 160 18 160 15 0 17 -14
18 -137z m388 105 c0 -30 -1 -31 -11 -11 -11 23 -35 33 -87 33 -26 0 -32 -3
-27 -16 3 -9 6 -40 6 -70 0 -47 3 -54 19 -54 11 0 23 5 26 10 11 18 23 10 23
-15 0 -25 -12 -33 -23 -15 -3 6 -15 10 -26 10 -17 0 -19 -7 -19 -57 0 -71 -8
-103 -26 -103 -10 0 -14 35 -16 160 l-3 160 83 0 82 0 -1 -32z m216 18 c78
-33 86 -122 14 -160 l-36 -20 56 -48 c31 -26 79 -57 106 -68 l50 -20 -45 6
c-61 9 -108 34 -171 93 l-54 50 31 1 c45 0 65 20 71 71 7 59 -16 88 -75 96
l-43 6 3 -157 c3 -151 2 -156 -17 -156 -20 0 -21 6 -21 160 l-1 160 49 0 c27
0 64 -6 83 -14z m380 -58 l0 -73 62 -3 63 -3 -5 76 c-4 72 -4 75 18 75 22 0
22 -1 22 -160 0 -156 0 -160 -21 -160 -21 0 -21 4 -17 80 l5 80 -67 0 -67 0 4
-80 c3 -75 2 -80 -17 -80 -19 0 -20 6 -20 160 0 153 1 160 20 160 18 0 20 -7
20 -72z m442 61 c104 -39 133 -187 52 -268 -101 -101 -279 -29 -279 113 0 118
116 197 227 155z m277 -3 c114 -48 73 -186 -56 -186 l-30 0 4 -60 c3 -55 1
-60 -17 -60 -19 0 -20 7 -20 160 l0 160 43 0 c23 0 58 -6 76 -14z m66 -436 c0
-7 -463 -10 -1370 -10 -907 0 -1370 3 -1370 10 0 7 463 10 1370 10 907 0 1370
-3 1370 -10z"/>
<path d="M2588 7709 c7 -8 12 -42 12 -90 0 -53 -4 -79 -12 -82 -7 -3 3 -5 22
-5 19 0 29 2 23 5 -9 3 -13 26 -12 66 l0 62 26 -70 27 -69 18 39 c9 22 23 54
30 70 12 29 12 29 16 -29 2 -41 -1 -62 -10 -67 -8 -6 2 -9 27 -9 23 0 35 4 28
8 -19 12 -29 148 -12 168 11 14 10 16 -11 12 -18 -2 -29 -17 -50 -67 l-27 -63
-25 63 c-22 56 -29 64 -54 67 -23 3 -27 1 -16 -9z"/>
<path d="M3357 6799 c-51 -27 -180 -59 -231 -58 -34 0 -26 4 41 18 45 9 86 21
90 25 4 5 -1 6 -12 3 -138 -38 -345 -40 -560 -4 -5 1 -10 -7 -10 -18 -1 -26
-25 -86 -34 -81 -3 2 -4 -24 -1 -57 l5 -62 99 4 c54 1 96 -1 93 -6 -3 -4 13
-7 36 -6 35 2 38 1 17 -6 l-25 -9 25 -1 c14 -1 45 -10 69 -21 49 -23 102 -26
134 -8 12 6 45 18 72 25 l50 13 -44 -5 c-24 -3 -56 -12 -72 -20 -36 -19 -97
-19 -129 1 -16 10 -18 13 -5 8 46 -17 98 -16 138 2 22 10 60 19 84 19 23 0 43
4 43 8 0 5 39 7 88 5 l87 -3 5 75 c6 86 1 180 -8 180 -4 -1 -24 -10 -45 -21z"/>
<path d="M2992 6390 c-27 -61 -37 -73 -69 -86 -49 -21 -180 -15 -217 10 -25
16 -26 16 -26 -3 0 -24 62 -145 73 -142 4 1 16 -8 27 -21 l18 -23 46 23 c26
12 56 22 67 22 11 0 24 10 29 23 5 12 9 16 9 9 1 -8 7 -12 14 -9 6 2 24 -3 40
-12 25 -14 30 -14 64 4 20 11 40 21 45 21 4 1 11 2 14 3 3 0 -4 16 -15 35 -13
21 -21 50 -21 78 0 44 -35 129 -56 135 -6 2 -25 -28 -42 -67z"/>
<path d="M3130 6304 c0 -16 86 -127 116 -150 34 -26 37 -27 62 -12 18 11 28
27 30 48 3 29 2 31 -18 20 l-22 -12 20 29 c11 15 23 38 27 50 6 21 4 21 -74
16 -46 -3 -92 -1 -110 5 -17 6 -31 9 -31 6z"/>
<path d="M1790 5200 l0 -150 44 0 c61 0 91 25 91 79 0 50 -28 81 -82 91 -30 6
-32 8 -11 9 33 1 68 43 61 71 -7 28 -41 50 -75 50 l-28 0 0 -150z"/>
<path d="M3944 5331 c-37 -23 -54 -65 -54 -135 0 -68 25 -116 73 -140 77 -37
159 9 172 97 10 64 -2 119 -34 157 -35 42 -108 52 -157 21z"/>
<path d="M4270 5261 l0 -91 30 0 c45 0 80 39 80 88 0 51 -25 81 -72 89 l-38 6
0 -92z"/>
</g>
</svg>
