<?xml version="1.0" standalone="no"?>
<!DOCTYPE svg PUBLIC "-//W3C//DTD SVG 20010904//EN"
 "http://www.w3.org/TR/2001/REC-SVG-20010904/DTD/svg10.dtd">
<svg version="1.0" xmlns="http://www.w3.org/2000/svg"
 width="1280.000000pt" height="1280.000000pt" viewBox="0 0 1280.000000 1280.000000"
 preserveAspectRatio="xMidYMid meet">
<metadata>
Created by potrace 1.16, written by Peter Selinger 2001-2019
</metadata>
<g transform="translate(0.000000,1280.000000) scale(0.100000,-0.100000)"
fill="#000000" stroke="none">
<path d="M3455 10965 c-5 -2 -26 -6 -46 -9 -80 -14 -189 -124 -189 -192 0 -12
-7 -27 -15 -34 -17 -14 -20 -66 -5 -75 6 -3 10 -15 10 -26 0 -10 5 -19 10 -19
6 0 10 -6 10 -14 0 -7 7 -19 15 -26 13 -11 15 -73 15 -445 0 -372 -2 -434 -15
-445 -8 -7 -15 -19 -15 -26 0 -8 -4 -14 -10 -14 -5 0 -10 -9 -10 -19 0 -11 -4
-23 -10 -26 -14 -9 -12 -49 4 -82 8 -15 22 -47 32 -70 18 -46 68 -87 125 -103
47 -14 183 -12 231 2 102 30 184 173 153 266 l-7 22 2576 0 c1626 0 2576 -4
2576 -10 0 -5 -5 -21 -12 -35 -10 -22 -9 -32 4 -58 9 -18 19 -45 23 -62 9 -40
81 -108 132 -123 58 -17 190 -15 247 4 60 21 110 72 126 130 7 24 17 47 21 50
16 10 9 49 -17 102 -14 29 -30 54 -35 58 -5 3 -9 188 -9 438 0 361 2 436 14
445 20 17 56 96 56 125 0 13 -7 29 -15 36 -8 7 -15 21 -15 32 0 54 -84 154
-155 184 -51 21 -148 21 -198 0 -59 -26 -124 -91 -142 -144 -9 -26 -24 -60
-32 -75 -8 -16 -13 -37 -10 -48 5 -19 -31 -19 -2554 -19 l-2559 0 0 23 c0 12
-6 31 -13 42 -7 11 -19 38 -25 61 -15 53 -81 127 -135 152 -41 19 -111 34
-132 27z m72 -25 c26 -6 59 -20 73 -31 25 -19 24 -19 -23 1 -50 21 -89 27 -49
8 35 -17 26 -35 -23 -47 -38 -10 -45 -15 -45 -36 0 -22 4 -25 43 -27 l42 -1
-45 -7 -45 -7 39 -1 c89 -4 216 -25 216 -36 0 -9 -18 -10 -67 -5 -87 10 -249
10 -336 0 -38 -4 -70 -4 -72 0 -9 14 49 111 83 139 35 29 105 58 144 59 9 1
39 -4 65 -9z m5748 -25 c61 -35 56 -39 -11 -8 -30 14 -58 22 -61 19 -3 -3 2
-8 11 -12 25 -10 19 -33 -11 -40 -59 -13 -63 -15 -63 -40 0 -21 5 -24 43 -26
l42 -1 -45 -7 -45 -7 39 -1 c22 -1 79 -7 128 -13 66 -9 88 -15 88 -26 0 -10
-6 -13 -17 -8 -30 12 -304 17 -381 8 l-74 -10 6 30 c14 69 87 142 167 166 53
16 134 6 184 -24z m-5715 -200 c0 -24 -2 -25 -77 -27 l-78 -2 73 -3 c60 -3 72
-7 72 -21 0 -14 -9 -17 -57 -15 l-58 1 47 -7 c54 -8 63 -14 55 -36 -5 -12 -26
-15 -110 -15 -58 0 -119 -3 -136 -6 -27 -6 -33 -3 -38 15 -3 11 -9 21 -14 21
-5 0 -9 9 -9 19 0 11 -4 23 -10 26 -14 8 -13 42 1 51 19 12 118 21 232 23
l107 1 0 -25z m5686 9 c-3 -9 -6 -20 -6 -25 0 -5 -35 -10 -77 -11 l-78 -2 73
-3 c55 -3 72 -7 72 -18 0 -11 -14 -15 -57 -16 l-58 -1 53 -8 c63 -9 66 -11 49
-32 -10 -13 -38 -17 -145 -20 l-132 -3 -25 49 c-28 54 -30 71 -14 82 20 12
113 21 233 23 104 1 117 -1 112 -15z m-5901 -165 c4 -6 -2 -21 -14 -33 -18
-19 -21 -35 -21 -100 0 -69 2 -77 15 -66 10 8 16 34 17 79 1 56 2 59 5 19 2
-27 7 -48 10 -48 3 0 39 34 79 76 61 64 77 76 96 70 13 -3 35 -6 51 -6 32 0
35 -17 8 -51 -13 -17 -21 -50 -26 -106 -4 -46 -5 -83 -3 -83 3 0 22 17 44 38
38 36 39 39 45 127 3 50 5 -92 5 -315 0 -223 -2 -338 -3 -257 -2 93 -7 146
-13 142 -6 -3 -10 -31 -10 -61 0 -41 -5 -60 -20 -76 -17 -18 -20 -36 -20 -106
0 -75 2 -83 15 -72 9 7 19 10 23 6 8 -9 -26 -36 -45 -36 -10 0 -13 20 -13 76
l0 75 -77 -81 -78 -81 -62 -5 -63 -4 0 438 c0 241 3 442 7 445 10 11 41 8 48
-4z m5685 0 c0 -6 -9 -22 -20 -36 -16 -21 -20 -41 -20 -101 0 -65 2 -73 15
-62 10 8 15 32 16 69 l1 56 12 -37 11 -37 74 73 c71 72 74 74 115 69 69 -8 71
-10 44 -46 -21 -26 -26 -47 -30 -114 -3 -46 -2 -83 1 -83 3 0 19 16 34 35 16
20 32 33 37 30 5 -3 11 27 13 67 1 40 3 -69 3 -242 0 -256 -1 -286 -6 -160 -4
85 -8 166 -9 180 -2 24 -4 23 -41 -20 -22 -25 -40 -48 -40 -52 0 -4 -40 -48
-90 -99 -85 -88 -90 -95 -91 -138 l-2 -46 -6 40 c-6 36 -7 32 -12 -35 -3 -41
-4 -77 -2 -79 2 -3 53 45 113 105 l110 109 2 55 1 55 6 -44 c5 -39 8 -42 20
-28 26 32 33 19 25 -50 -4 -42 -14 -77 -25 -92 -14 -17 -19 -40 -19 -82 0 -68
7 -90 26 -82 21 8 17 -15 -5 -27 -38 -20 -43 -13 -39 60 2 51 0 70 -9 70 -7 0
-13 -3 -13 -7 0 -5 -29 -39 -64 -76 l-63 -68 -64 -2 -64 -2 -3 430 c-1 237 0
436 3 443 5 15 55 16 55 1z m-3853 -169 c12 -30 47 -118 77 -195 30 -77 58
-139 61 -138 4 1 40 80 80 176 100 240 84 218 162 215 73 -3 92 -20 41 -34
l-33 -10 4 -239 c2 -132 8 -245 13 -252 5 -6 23 -15 39 -18 26 -6 40 -23 22
-26 -23 -5 -191 -6 -205 -2 -28 7 -21 19 15 29 l32 10 3 192 c1 106 -1 192 -6
192 -5 0 -46 -92 -93 -205 -46 -113 -89 -205 -95 -205 -6 0 -46 91 -89 203
-43 111 -79 203 -80 205 -7 8 -17 -311 -11 -343 6 -28 14 -38 44 -51 52 -21
29 -30 -80 -29 -96 0 -125 14 -66 31 42 12 44 24 54 296 l7 208 -37 15 c-54
23 -35 36 47 33 l71 -3 23 -55z m1180 45 c2 -6 -7 -15 -19 -20 -13 -6 -22 -17
-20 -25 6 -24 113 -323 122 -339 10 -19 24 12 85 201 44 134 46 143 29 155
-10 7 -24 13 -32 13 -7 0 -12 6 -10 13 7 19 178 23 178 3 0 -7 -12 -17 -26
-20 -33 -9 -59 -66 -155 -348 -40 -120 -78 -218 -84 -218 -6 0 -51 114 -99
253 -104 296 -108 303 -141 311 -14 4 -25 13 -25 22 0 12 16 14 97 12 53 -2
98 -7 100 -13z m1199 -16 c154 -78 85 -284 -97 -292 -66 -3 -75 16 -16 32 69
20 98 49 104 104 10 85 -26 132 -112 144 -76 10 -75 13 -75 -251 0 -127 4
-236 8 -242 4 -6 20 -14 35 -18 16 -4 27 -12 24 -19 -5 -17 -209 -17 -214 0
-3 7 10 16 29 21 l33 8 0 250 0 249 -29 5 c-42 7 -44 28 -4 33 18 3 85 4 149
3 102 -2 123 -5 165 -27z m-3126 -274 l0 -35 -150 0 -150 0 0 35 0 35 150 0
150 0 0 -35z m4080 0 l0 -35 -150 0 -150 0 0 35 0 35 150 0 150 0 0 -35z
m-5090 -489 c89 -3 115 -7 115 -17 0 -10 -20 -15 -70 -19 l-70 -4 74 -6 c93
-6 109 -27 24 -33 l-58 -3 61 -2 c54 -2 62 -5 67 -24 3 -12 4 -25 1 -30 -6 -9
-190 -9 -278 1 -80 8 -87 22 -52 95 23 47 31 55 49 51 12 -3 74 -7 137 -9z
m5705 1 c72 -2 90 -5 90 -17 0 -11 -17 -16 -70 -21 l-70 -5 78 -2 c60 -2 77
-5 77 -17 0 -10 -16 -15 -57 -18 l-58 -3 61 -2 c54 -2 62 -5 67 -24 3 -12 4
-25 1 -30 -6 -9 -190 -9 -278 1 -80 8 -87 22 -52 94 l27 56 47 -5 c26 -2 88
-6 137 -7z m-5425 -167 c-8 -6 -22 -10 -30 -11 -8 0 -71 -6 -140 -13 -107 -11
-116 -14 -65 -16 59 -3 58 -3 -25 -10 -101 -8 -130 -16 -130 -37 0 -8 -6 -13
-12 -11 -18 6 -58 67 -58 89 0 16 12 17 168 13 92 -3 196 -1 232 3 69 10 84 8
60 -7z m5684 0 c-5 -5 -74 -15 -154 -23 -115 -11 -132 -15 -85 -17 59 -3 58
-3 -25 -10 -100 -8 -130 -16 -130 -36 0 -25 -18 -15 -45 23 -48 72 -47 72 148
66 94 -2 199 0 232 4 64 10 74 8 59 -7z"/>
<path d="M3443 10336 l-83 -83 2 -79 1 -79 7 65 c6 60 7 62 8 18 1 -27 4 -48
7 -48 3 0 39 33 80 72 l75 73 0 72 c0 40 -3 73 -7 73 -5 0 -45 -38 -90 -84z"/>
<path d="M3593 10194 c-18 -24 -33 -51 -33 -59 0 -8 -4 -14 -9 -12 -5 1 -46
-35 -90 -80 l-81 -82 -2 -58 -1 -58 -6 50 c-4 36 -8 45 -13 32 -9 -21 -11
-137 -3 -137 13 0 225 222 225 235 0 8 3 14 8 13 4 -1 17 4 30 12 20 14 22 23
22 102 0 49 -3 88 -7 87 -5 0 -23 -20 -40 -45z"/>
<path d="M9123 10331 l-83 -88 2 -69 1 -69 7 50 c6 46 7 47 8 13 1 -21 6 -38
10 -38 5 0 42 35 83 78 l74 77 -3 68 c-2 37 -7 67 -10 66 -4 -1 -44 -40 -89
-88z"/>
<path d="M5746 9154 c-146 -27 -243 -89 -391 -253 l-30 -33 56 6 57 7 -72 -71
c-70 -71 -72 -72 -131 -76 -159 -12 -236 -33 -431 -120 l-59 -27 167 -43 c92
-24 184 -51 205 -60 l38 -16 -26 -8 c-15 -4 -98 -13 -185 -20 -88 -7 -160 -14
-162 -15 -2 -2 15 -32 37 -68 56 -88 54 -107 -13 -156 -29 -22 -63 -52 -75
-67 -85 -109 -118 -299 -91 -539 10 -84 57 -388 64 -410 2 -5 31 49 66 120 55
113 72 140 135 203 40 39 79 72 87 72 12 0 19 -31 33 -132 9 -73 37 -230 61
-348 48 -232 48 -262 -1 -274 -35 -9 -83 -54 -106 -98 -42 -82 -50 -379 -14
-526 28 -117 87 -232 154 -299 26 -26 36 -50 55 -130 45 -189 71 -403 61 -505
l-7 -66 -69 -7 c-38 -4 -69 -10 -68 -14 0 -3 25 -26 54 -51 29 -25 54 -53 54
-63 1 -10 -10 -62 -23 -115 -38 -152 -49 -273 -43 -470 5 -190 31 -325 77
-408 l21 -39 -7 35 c-3 19 -10 53 -15 75 -4 22 -8 58 -8 80 0 38 2 35 37 -51
149 -358 498 -578 1012 -639 158 -19 246 -19 395 0 154 20 304 57 432 106 97
38 241 120 305 174 41 34 47 24 13 -20 -50 -66 -15 -50 60 28 113 117 192 252
238 407 33 110 35 119 52 282 17 163 9 267 -34 444 l-29 118 49 57 49 57 -59
7 c-70 8 -71 9 -71 135 0 103 19 235 60 411 29 125 32 134 77 183 57 64 118
187 140 286 20 92 22 367 4 453 -17 78 -62 136 -126 161 -28 11 -51 21 -53 22
-2 1 10 87 27 191 83 520 75 817 -28 1036 -16 34 -34 91 -40 127 -12 69 -69
200 -121 276 -18 25 -59 75 -93 111 -84 89 -404 302 -592 393 -131 64 -333
145 -341 137 -2 -2 26 -20 62 -41 36 -21 63 -40 61 -43 -3 -2 -56 12 -118 31
-316 95 -614 128 -823 90z m510 -80 c236 -48 444 -186 561 -372 74 -115 95
-191 99 -342 l2 -125 -7 110 c-13 184 -78 330 -204 459 -218 223 -514 308
-902 261 l-40 -5 40 10 c123 32 310 34 451 4z m-136 -200 c295 -61 535 -237
661 -486 66 -130 104 -340 81 -448 -9 -43 -10 -41 -11 37 -3 224 -93 428 -265
599 -236 234 -558 326 -981 279 -30 -3 -25 -1 19 11 141 36 343 39 496 8z
m858 -84 c204 -79 419 -245 553 -427 48 -65 47 -81 -1 -20 -135 169 -317 312
-540 424 -58 29 -101 53 -97 53 4 0 42 -13 85 -30z m-1278 -140 c205 -18 397
-62 505 -118 54 -27 143 -94 162 -122 9 -13 -9 -2 -40 23 -168 137 -450 201
-895 201 -138 1 -249 2 -244 4 4 1 48 6 97 11 128 12 282 12 415 1z m400 -208
c87 -23 184 -64 195 -83 6 -9 3 -10 -11 -4 -51 21 -131 45 -187 56 -107 20
-341 13 -552 -16 -211 -29 -456 -41 -525 -27 l-45 10 51 1 c86 2 249 21 444
51 246 39 243 38 410 35 104 -3 166 -9 220 -23z m-310 -182 c160 -12 435 -50
575 -80 101 -22 86 -20 -172 15 -260 36 -383 45 -593 45 -337 0 -526 -50 -672
-179 -87 -77 -164 -204 -193 -318 l-15 -58 6 49 c13 107 99 263 191 345 175
156 440 211 873 181z m320 -111 c52 -11 129 -31 170 -46 87 -30 271 -123 315
-159 17 -14 -19 1 -85 35 -215 111 -423 168 -655 179 -92 4 -120 8 -95 13 55
12 245 0 350 -22z m-218 -295 c150 -21 538 -118 524 -131 -2 -2 -46 7 -97 21
-132 36 -375 83 -499 97 -138 15 -367 6 -485 -20 -119 -26 -192 -52 -297 -106
-49 -25 -88 -43 -88 -41 0 11 147 90 225 120 211 81 433 99 717 60z m1668
-251 c19 -124 24 -320 10 -491 -6 -87 -15 -173 -19 -192 l-6 -33 -295 2 c-187
1 -322 -2 -369 -9 -78 -13 -220 -58 -331 -106 -54 -23 -79 -28 -145 -28 -72 1
-92 6 -198 48 -231 92 -223 91 -635 91 -355 0 -363 0 -368 20 -26 107 -49 225
-44 225 3 0 16 -34 28 -76 13 -42 24 -75 26 -73 2 2 -6 63 -19 134 -26 147
-39 252 -32 245 3 -3 19 -54 35 -115 17 -60 35 -121 41 -135 l11 -25 -4 26
c-13 64 -36 231 -35 251 0 13 12 -12 25 -56 14 -43 27 -76 30 -74 2 3 0 36 -6
74 -5 38 -9 89 -9 114 0 44 1 43 20 -30 11 -41 21 -76 22 -77 1 -1 2 56 2 127
0 71 3 131 6 134 3 3 52 -4 110 -15 248 -49 447 -70 715 -76 377 -9 660 20
939 96 60 16 111 29 112 27 4 -4 -113 -48 -197 -75 -96 -31 -238 -61 -385 -82
l-130 -19 165 5 c312 7 650 94 850 217 25 15 50 28 56 28 7 0 17 -34 24 -77z
m-1585 -759 c44 -8 118 -31 165 -51 254 -105 283 -107 473 -21 48 21 131 51
185 64 91 24 111 25 337 24 132 0 267 -4 300 -9 39 -5 -33 -8 -210 -9 -347 -1
-416 -12 -596 -93 -47 -21 -115 -46 -150 -55 -84 -22 -156 -9 -292 52 -56 25
-135 55 -177 66 -94 24 -314 37 -532 30 -90 -2 -160 -1 -156 3 9 9 403 22 508
17 36 -2 101 -10 145 -18z m1830 -106 c48 -38 58 -78 62 -253 2 -88 0 -180 -5
-205 -9 -39 -10 -31 -11 65 -1 119 -29 281 -56 321 -8 13 -23 24 -32 24 -15 0
-15 -1 1 -13 52 -38 46 -324 -11 -492 l-17 -50 -9 42 c-8 33 -6 50 8 79 24 50
17 148 -12 190 -20 27 -21 37 -13 100 8 64 37 189 47 207 7 12 19 8 48 -15z
m-2641 -95 c13 -21 32 -64 42 -96 l18 -57 -23 -17 c-47 -33 -67 -149 -37 -218
12 -29 13 -28 13 30 0 58 19 115 44 130 15 10 18 5 40 -73 19 -67 19 -75 5
-123 -16 -53 -71 -149 -86 -149 -12 0 -45 92 -69 187 -45 182 -33 422 21 423
4 0 19 -17 32 -37z m1276 -93 c27 -27 56 -86 97 -199 33 -92 35 -100 29 -188
-7 -107 4 -147 72 -252 52 -79 58 -135 16 -151 -37 -14 -51 -12 -28 4 10 8 17
17 14 20 -9 8 -89 -31 -130 -64 -34 -27 -45 -30 -113 -30 -56 0 -78 4 -88 16
-14 17 -69 47 -109 59 -25 8 -25 8 -6 -14 24 -26 17 -35 -17 -22 -32 13 -50
45 -45 82 4 23 2 26 -9 18 -18 -15 -17 -80 2 -106 15 -21 14 -22 -22 -28 -109
-17 -149 -27 -219 -56 -42 -17 -99 -47 -126 -65 -28 -19 -54 -34 -58 -34 -13
0 -92 78 -125 123 -33 44 -44 43 -20 -3 31 -60 7 -42 -55 42 -86 116 -166 283
-179 375 -6 39 -11 83 -11 97 0 23 2 22 43 -20 31 -33 60 -51 111 -70 128 -46
366 -54 539 -18 151 31 197 79 269 282 51 146 97 222 133 222 8 0 24 -9 35
-20z m-1084 -232 c36 -109 68 -149 135 -170 173 -55 494 -49 578 11 36 26 76
85 107 158 14 32 22 45 19 28 -22 -106 -100 -206 -179 -231 -79 -25 -299 -30
-415 -10 -122 21 -172 44 -209 95 -30 41 -73 177 -71 222 l2 24 4 -25 c2 -14
15 -60 29 -102z m2131 80 c-10 -73 -46 -176 -74 -208 -38 -46 -91 -68 -205
-86 -73 -12 -139 -15 -233 -11 -157 6 -226 25 -272 73 -36 39 -88 141 -97 194
-4 20 7 1 25 -44 39 -98 102 -168 169 -188 70 -20 387 -17 469 5 88 24 112 37
137 75 26 37 74 175 74 210 0 12 3 22 6 22 4 0 4 -19 1 -42z m-716 -324 c118
-36 428 -36 544 0 28 9 53 16 56 16 3 0 2 -24 -2 -54 -9 -72 -50 -145 -124
-225 l-60 -64 45 23 c25 12 59 33 77 46 17 13 34 24 37 24 3 0 6 -35 6 -77 0
-70 -3 -83 -30 -123 -20 -30 -30 -39 -30 -26 0 15 -11 9 -50 -28 -27 -25 -51
-46 -54 -46 -6 0 -134 80 -174 108 -42 31 -322 417 -322 445 0 5 8 6 18 2 9
-4 38 -13 63 -21z m-506 -453 c11 -5 -18 -6 -66 -3 -61 3 -109 0 -162 -12 -89
-20 -105 -32 -39 -29 26 1 36 -1 22 -3 -55 -11 -157 -47 -197 -70 -54 -31
-133 -104 -168 -154 -29 -42 -45 -48 -25 -10 21 39 -8 12 -37 -33 -38 -62 -73
-96 -123 -122 -59 -30 -108 -43 -55 -14 74 39 115 72 137 108 96 158 238 271
411 327 57 18 94 23 177 23 58 0 114 -4 125 -8z m628 -7 c162 -42 329 -163
421 -306 45 -70 80 -102 146 -133 36 -17 45 -24 25 -20 -67 14 -132 63 -189
144 -50 72 -158 181 -179 181 -5 0 5 -16 23 -36 46 -53 29 -53 -27 1 -60 58
-186 121 -278 139 -68 14 -69 14 -25 16 l45 2 -45 10 c-25 5 -81 7 -125 5 -44
-2 -71 0 -60 4 36 14 204 10 268 -7z m-468 -419 c77 0 212 4 300 9 l160 8 -35
-27 c-19 -14 -63 -39 -96 -56 -68 -32 -118 -36 -239 -19 -55 8 -91 7 -176 -7
-102 -16 -109 -16 -155 2 -49 18 -174 92 -174 102 0 4 62 2 138 -3 75 -5 200
-9 277 -9z m-447 -452 c22 -45 68 -124 101 -176 81 -127 136 -238 155 -313 22
-85 19 -123 -4 -47 -30 103 -61 163 -180 358 -61 98 -115 211 -134 277 -21 75
-19 108 3 38 10 -30 36 -92 59 -137z m-729 -3 c28 -260 118 -494 263 -679 61
-78 39 -68 -30 13 -150 177 -237 406 -249 656 -3 69 -3 123 0 120 3 -3 10 -52
16 -110z m140 -137 c3 -89 82 -274 206 -478 77 -127 151 -273 143 -281 -3 -3
-15 15 -27 39 -12 24 -71 124 -131 223 -124 201 -182 335 -199 457 -6 43 -11
88 -10 100 1 20 2 20 9 -3 4 -14 8 -39 9 -57z m2058 -55 c-11 -115 -74 -275
-172 -438 -18 -30 -61 -104 -95 -165 -34 -60 -59 -99 -55 -85 13 44 70 162
131 270 110 192 169 334 181 433 9 70 17 57 10 -15z"/>
<path d="M4705 9103 c-66 -1 -473 -7 -905 -13 -1262 -19 -1155 -27 692 -51
l887 -12 40 34 c22 19 40 37 40 42 1 6 -427 7 -754 0z"/>
<path d="M6819 9070 l84 -40 426 0 c440 0 1499 13 2166 27 270 5 357 9 300 14
-128 12 -1203 29 -2170 35 l-890 5 84 -41z"/>
<path d="M2792 8891 c3 -11 93 -130 498 -660 146 -191 328 -431 405 -532 77
-101 190 -249 250 -329 61 -80 306 -401 545 -715 587 -772 619 -813 629 -819
22 -14 -4 35 -45 85 -55 67 -105 163 -134 254 -43 138 -43 484 -1 580 25 57
80 118 123 136 23 9 28 17 24 33 -11 45 -85 425 -97 496 l-12 75 -40 -45 c-22
-25 -69 -105 -106 -180 -63 -128 -68 -135 -98 -138 -24 -2 -35 2 -47 20 -8 13
-29 111 -47 218 -29 170 -33 219 -33 380 -1 152 2 196 17 245 29 93 66 152
134 215 35 31 63 61 63 66 0 5 -18 36 -40 69 -62 93 -50 135 41 135 27 0 49 4
49 8 0 5 -26 14 -57 21 -78 17 -103 34 -103 70 0 16 6 33 13 39 27 21 271 123
330 137 34 8 98 18 142 21 95 8 111 16 89 49 -9 14 -12 33 -8 49 l6 26 -1247
0 c-773 0 -1245 -4 -1243 -9z"/>
<path d="M7150 8895 c0 -2 67 -49 148 -104 206 -139 283 -219 374 -387 38 -70
78 -192 78 -236 0 -10 13 -44 29 -76 99 -196 114 -507 45 -952 -14 -91 -28
-181 -31 -201 -5 -32 -2 -37 24 -48 43 -18 99 -78 123 -134 40 -89 45 -394 10
-542 -5 -22 -7 -41 -6 -43 2 -1 203 260 447 580 244 321 477 626 516 678 40
52 133 174 206 270 73 96 307 403 520 682 213 279 387 510 387 513 0 3 -646 5
-1435 5 -789 0 -1435 -2 -1435 -5z"/>
<path d="M9948 8477 c-160 -197 -673 -853 -1118 -1428 -278 -361 -345 -449
-601 -784 -523 -685 -531 -696 -540 -734 -5 -20 -11 -85 -15 -146 l-6 -110 74
100 c182 243 474 644 579 793 14 21 109 152 210 292 429 592 1435 2008 1483
2088 17 28 -3 7 -66 -71z"/>
<path d="M2846 8448 c13 -21 276 -397 483 -688 107 -151 233 -329 279 -395 47
-66 148 -208 225 -315 77 -107 153 -213 168 -235 24 -34 150 -210 372 -515 30
-41 211 -291 402 -555 191 -264 357 -490 368 -502 11 -13 31 -23 43 -23 29 0
40 46 30 128 -6 53 -14 67 -154 252 -145 192 -561 737 -652 855 -26 33 -77
101 -115 150 -38 50 -161 209 -274 355 -112 146 -239 309 -280 363 -284 368
-891 1137 -897 1137 -3 0 -2 -6 2 -12z"/>
<path d="M2980 7204 c0 -14 52 -223 243 -981 40 -161 71 -293 68 -293 -9 0
-64 34 -299 181 -678 426 -811 509 -815 509 -14 0 -15 -35 -2 -59 36 -70 307
-285 1005 -794 l194 -142 64 -255 c67 -271 66 -258 46 -440 -5 -42 -1 -69 15
-115 36 -102 26 -144 -61 -268 -63 -88 -81 -195 -54 -312 26 -109 92 -198 173
-231 32 -14 33 -17 35 -72 l1 -57 7 50 7 50 1 -55 c1 -30 -3 -62 -8 -70 -8
-12 -10 -12 -11 5 0 12 -5 7 -11 -14 -11 -39 -1 -51 45 -51 27 0 27 1 28 68 2
109 8 123 56 139 23 8 58 31 78 51 132 134 132 376 0 532 -56 66 -121 170
-146 231 -38 96 -37 181 6 400 21 107 39 195 40 196 4 7 346 -48 385 -62 97
-34 169 -96 260 -225 77 -109 196 -170 330 -170 89 0 157 22 209 67 107 91
107 225 0 334 -73 75 -160 112 -276 117 -82 4 -100 1 -170 -24 -64 -24 -92
-29 -158 -28 -134 3 -221 41 -527 231 l-167 104 -87 267 c-250 773 -374 1106
-438 1175 -27 30 -66 36 -66 11z m226 -436 c61 -164 189 -542 219 -650 30
-105 31 -129 5 -159 l-20 -24 17 32 18 32 -154 458 c-85 252 -156 465 -158
473 -13 46 33 -55 73 -162z m1466 -1402 c190 -57 241 -250 83 -309 -93 -35
-237 -4 -313 66 -31 29 -62 90 -62 122 0 30 21 75 44 94 47 39 166 52 248 27z
m-991 -821 c134 -70 147 -357 20 -442 -143 -97 -298 155 -216 351 8 19 31 51
50 71 29 28 43 35 76 35 22 0 53 -7 70 -15z"/>
<path d="M9818 7193 c-63 -66 -143 -273 -364 -943 -69 -206 -132 -402 -141
-434 -16 -59 -17 -59 -112 -121 -268 -173 -376 -230 -508 -266 -93 -26 -153
-22 -263 17 -101 35 -225 32 -313 -9 -80 -36 -139 -87 -172 -149 -56 -102 -33
-213 57 -281 107 -81 306 -74 435 14 43 30 55 43 138 155 54 73 130 135 204
164 44 17 389 76 397 67 1 -1 14 -63 29 -137 14 -74 30 -157 35 -183 6 -26 10
-82 10 -123 0 -120 -65 -262 -175 -385 -18 -20 -45 -62 -60 -95 -24 -50 -30
-75 -33 -159 -3 -84 0 -109 18 -157 28 -76 99 -154 153 -170 23 -6 44 -13 46
-15 2 -2 7 -45 10 -95 l6 -93 33 -3 c39 -4 46 10 33 63 -9 36 -10 36 -7 7 2
-22 -1 -29 -7 -23 -6 6 -12 36 -13 68 -2 48 -1 52 5 23 l8 -35 2 47 c1 45 3
47 46 68 94 46 161 159 172 291 9 108 -16 188 -88 284 -21 28 -43 71 -50 97
-12 42 -10 54 11 122 19 61 22 85 16 138 -4 34 -9 86 -12 113 -4 40 8 103 60
310 54 218 68 263 89 280 13 11 111 83 218 159 221 159 630 463 734 545 184
146 265 241 225 266 -5 3 -258 -150 -561 -340 -303 -191 -553 -344 -556 -341
-3 3 66 288 152 633 87 345 158 632 159 638 3 22 -41 14 -66 -12z m-243 -724
c-155 -463 -156 -464 -140 -499 l15 -35 -20 24 c-11 13 -20 34 -20 48 0 46
132 455 240 742 73 197 72 193 77 188 2 -2 -66 -213 -152 -468z m-1178 -1109
c84 -38 107 -124 53 -199 -122 -167 -440 -155 -440 18 0 71 80 157 174 187 63
19 164 17 213 -6z m927 -831 c112 -98 93 -341 -33 -426 -68 -46 -145 -17 -190
72 -22 42 -26 63 -26 135 0 73 4 93 28 143 53 106 149 140 221 76z"/>
<path d="M2230 3635 c0 -20 6 -38 13 -40 6 -3 773 -4 1702 -3 l1690 3 -70 38
-69 37 -1633 0 -1633 0 0 -35z"/>
<path d="M7293 3637 c-35 -17 -63 -35 -63 -39 0 -11 3422 -10 3439 1 9 6 11
18 6 40 l-7 31 -1656 -1 -1657 0 -62 -32z"/>
<path d="M6400 3197 l0 -27 -297 -1 c-164 -1 -274 -5 -245 -8 30 -4 57 -13 62
-21 12 -19 13 -900 1 -918 -4 -8 -33 -17 -62 -22 -33 -5 74 -8 281 -8 l335 -1
6 -28 c3 -15 8 21 12 82 4 61 10 145 13 188 8 92 -11 109 -21 20 -12 -111 -17
-133 -38 -165 -39 -58 -72 -67 -252 -68 -208 -2 -190 -3 -174 17 11 12 15 68
17 235 l3 218 54 0 c100 0 133 -34 145 -150 5 -40 7 19 7 155 0 155 -2 202 -8
158 -13 -104 -44 -133 -144 -133 l-53 0 -5 193 c-2 105 -7 202 -12 215 -7 22
-7 22 93 22 56 0 125 -5 154 -11 94 -20 138 -94 138 -229 0 -44 12 -72 23 -53
7 12 -17 351 -26 359 -4 4 -7 -5 -7 -19z"/>
<path d="M7891 3156 l-1 -59 -22 20 c-40 36 -91 56 -159 61 -175 12 -289 -75
-289 -221 0 -110 56 -182 213 -274 184 -107 219 -144 225 -241 7 -107 -35
-181 -123 -218 -55 -23 -178 -22 -241 2 -80 29 -195 108 -290 199 -86 83 -166
143 -205 157 l-33 11 63 13 c121 25 216 102 242 197 15 57 6 154 -19 204 -23
45 -86 100 -142 125 -73 33 -116 38 -335 36 -121 -1 -198 -3 -170 -5 27 -3 55
-9 62 -15 17 -14 19 -923 2 -934 -6 -3 -34 -10 -63 -14 -33 -5 16 -7 139 -7
106 0 163 3 128 6 -34 3 -67 11 -72 16 -7 7 -11 170 -13 455 -2 245 -5 452 -8
460 -4 13 10 15 95 15 147 -1 212 -30 257 -119 46 -88 33 -259 -24 -332 -35
-43 -112 -74 -190 -74 -72 0 -96 -14 -52 -30 15 -6 80 -61 143 -123 224 -217
396 -297 615 -284 213 11 340 115 340 276 0 115 -60 199 -200 280 -112 64
-195 124 -222 159 -23 30 -27 46 -27 98 0 48 5 69 21 90 32 43 65 63 114 70
127 17 225 -68 237 -208 4 -34 11 -58 17 -58 13 0 11 142 -4 260 l-7 65 -2
-59z"/>
<path d="M9285 3166 c-228 -56 -365 -240 -365 -489 0 -287 186 -479 475 -494
283 -15 489 148 527 415 38 276 -104 502 -357 567 -70 18 -209 18 -280 1z
m213 -16 c201 -38 311 -213 311 -495 1 -286 -131 -446 -369 -448 -194 -2 -308
79 -371 263 -26 78 -37 282 -20 374 22 117 97 233 175 270 87 41 182 54 274
36z"/>
<path d="M2392 3163 c81 -7 78 14 78 -483 0 -497 3 -476 -78 -483 -26 -2 52
-4 173 -5 289 -2 373 17 460 103 85 85 101 188 46 299 -18 38 -46 75 -71 95
-46 37 -115 70 -147 71 -34 0 -37 18 -4 25 48 10 111 62 132 108 38 84 16 157
-63 214 -73 53 -134 63 -368 61 -113 -1 -184 -3 -158 -5z m343 -29 c64 -16
119 -58 137 -104 13 -34 12 -114 -3 -142 -34 -67 -88 -99 -179 -107 -36 -3
-65 -10 -65 -14 0 -4 32 -9 70 -11 174 -8 289 -120 288 -282 0 -61 -4 -80 -30
-125 -32 -57 -84 -100 -144 -118 -20 -6 -83 -11 -140 -11 l-104 0 0 465 0 465
55 0 c31 0 83 -7 115 -16z"/>
<path d="M3547 3063 c-25 -60 -94 -218 -153 -353 -58 -135 -119 -274 -134
-310 -62 -148 -81 -182 -114 -196 -28 -12 -20 -13 94 -12 85 0 109 3 74 7 -56
7 -84 24 -84 52 0 9 19 61 41 113 l42 96 269 -2 270 -3 45 -110 c24 -60 49
-114 54 -120 17 -18 9 -24 -38 -28 -27 -2 11 -4 82 -5 116 -1 127 0 100 12
-34 15 -16 -24 -271 596 -64 157 -119 304 -122 328 l-5 42 -52 0 -52 0 -46
-107z m168 -273 c59 -146 111 -275 116 -287 l9 -23 -260 0 -259 0 33 78 c19
42 75 172 126 287 51 116 97 221 102 235 l11 25 7 -25 c4 -14 56 -144 115
-290z"/>
<path d="M4205 3163 c27 -2 55 -9 62 -15 17 -14 19 -923 2 -934 -6 -3 -34 -10
-63 -14 -33 -5 18 -7 144 -7 126 0 172 2 130 7 -36 3 -71 10 -78 14 -9 5 -12
116 -12 456 0 288 -4 451 -10 455 -27 17 -2 25 73 25 92 0 174 -20 220 -53 16
-12 43 -49 58 -82 25 -51 29 -72 29 -142 0 -186 -87 -283 -253 -283 -31 0 -59
-4 -62 -10 -3 -5 -3 -10 2 -11 74 -7 91 -22 189 -171 47 -73 105 -152 127
-175 37 -39 46 -43 88 -43 36 0 56 7 90 31 56 40 53 38 46 45 -3 3 -19 -4 -35
-16 -31 -23 -31 -23 -64 -3 -21 12 -61 62 -115 143 -83 125 -140 180 -187 180
-17 0 -18 2 -6 10 8 5 29 10 46 10 17 0 59 14 93 31 113 56 170 160 158 288
-9 107 -67 183 -177 235 l-65 31 -240 1 c-132 1 -218 -1 -190 -3z"/>
<path d="M5050 3163 c24 -3 50 -9 57 -15 19 -15 19 -923 1 -935 -7 -4 -33 -10
-58 -14 -25 -3 52 -7 171 -8 119 0 241 4 270 9 72 14 149 53 194 98 59 60 70
87 70 177 0 69 -4 86 -27 125 -14 25 -41 59 -60 77 -37 35 -126 83 -154 83
-42 0 -43 16 -1 27 74 20 147 109 147 180 0 43 -39 112 -79 139 -78 53 -143
64 -370 62 -113 -1 -186 -3 -161 -5z m348 -28 c92 -28 142 -87 142 -170 0
-113 -83 -185 -211 -185 -76 0 -57 -16 26 -23 187 -16 292 -127 284 -299 -5
-96 -44 -161 -122 -204 -48 -27 -61 -29 -180 -32 l-127 -4 10 27 c13 34 13
854 1 875 -6 8 -7 18 -5 22 9 14 128 9 182 -7z"/>
<path d="M8072 3161 c27 -4 54 -13 60 -19 17 -17 19 -905 2 -922 -6 -6 -33
-15 -60 -19 -35 -6 -1 -9 121 -9 125 0 158 3 125 9 -25 5 -51 16 -57 26 -10
12 -13 77 -13 240 l0 223 190 0 190 0 0 -223 c0 -163 -3 -228 -12 -240 -7 -10
-33 -21 -58 -26 -33 -6 0 -9 125 -9 101 1 150 3 121 7 -30 5 -54 14 -62 26
-21 28 -21 882 0 910 8 12 32 21 62 26 29 4 -20 6 -121 6 -102 0 -152 -2 -126
-7 69 -11 71 -17 71 -242 l0 -198 -190 0 -190 0 0 198 c0 225 2 231 71 242 26
5 -24 7 -126 7 -97 0 -150 -3 -123 -6z"/>
<path d="M10040 3163 c24 -2 50 -9 57 -15 19 -15 19 -923 1 -935 -7 -4 -33
-10 -58 -14 -25 -3 29 -6 120 -7 120 0 153 3 121 9 -25 5 -48 14 -53 21 -4 7
-8 88 -8 179 l0 166 108 6 c177 8 264 54 321 169 75 149 13 323 -141 394 l-63
29 -225 1 c-124 1 -205 -1 -180 -3z m364 -34 c60 -17 120 -79 141 -145 23 -74
17 -202 -12 -259 -45 -86 -118 -124 -235 -125 l-78 0 0 246 c0 152 -4 253 -10
265 -19 35 -3 42 79 36 42 -4 93 -12 115 -18z"/>
<path d="M2390 1790 l0 -30 4060 0 4060 0 0 30 0 30 -4060 0 -4060 0 0 -30z"/>
</g>
</svg>
